<svg xmlns="http://www.w3.org/2000/svg" xmlns:xlink="http://www.w3.org/1999/xlink" version="1.1" width="256" height="256" viewBox="0 0 256 256" xml:space="preserve">

<defs>
</defs>
<g style="stroke: none; stroke-width: 0; stroke-dasharray: none; stroke-linecap: butt; stroke-linejoin: miter; stroke-miterlimit: 10; fill: none; fill-rule: nonzero; opacity: 1;" transform="translate(1.4065934065934016 1.4065934065934016) scale(2.81 2.81)" >
	<path d="M 45.384 41.774 c -5.926 -0.706 -6.743 -3.484 -6.743 -6.382 c 0 -3.507 2.853 -6.359 6.359 -6.359 c 3.507 0 6.359 2.853 6.359 6.359 c 0 1.795 1.454 3.249 3.249 3.249 c 1.795 0 3.249 -1.455 3.249 -3.249 c 0 -5.966 -4.089 -10.981 -9.608 -12.426 v -1.538 c 0 -1.795 -1.454 -3.249 -3.249 -3.249 s -3.249 1.455 -3.249 3.249 v 1.538 c -5.518 1.445 -9.608 6.46 -9.608 12.426 c 0 4.239 1.62 11.542 12.473 12.834 c 5.925 0.706 6.743 3.484 6.743 6.382 c 0 3.507 -2.852 6.359 -6.359 6.359 c -3.506 0 -6.359 -2.852 -6.359 -6.359 c 0 -1.795 -1.454 -3.249 -3.249 -3.249 c -1.795 0 -3.249 1.455 -3.249 3.249 c 0 5.966 4.09 10.98 9.608 12.425 v 1.539 c 0 1.795 1.454 3.249 3.249 3.249 s 3.249 -1.455 3.249 -3.249 v -1.539 c 5.519 -1.445 9.608 -6.459 9.608 -12.425 C 57.857 50.37 56.236 43.066 45.384 41.774 z" style="stroke: none; stroke-width: 1; stroke-dasharray: none; stroke-linecap: butt; stroke-linejoin: miter; stroke-miterlimit: 10; fill: rgb(0,0,0); fill-rule: nonzero; opacity: 1;" transform=" matrix(1 0 0 1 0 0) " stroke-linecap="round" />
	<path d="M 85.785 33.51 h -2.166 c -0.823 0 -1.544 -0.488 -1.795 -1.215 c -0.512 -1.482 -1.121 -2.948 -1.811 -4.358 c -0.334 -0.683 -0.174 -1.526 0.398 -2.098 l 1.553 -1.554 c 1.643 -1.642 1.643 -4.316 0 -5.96 L 71.675 8.035 c -0.797 -0.795 -1.855 -1.234 -2.981 -1.234 c -1.126 0 -2.185 0.439 -2.98 1.234 L 64.16 9.589 c -0.57 0.57 -1.414 0.733 -2.097 0.397 c -1.413 -0.691 -2.879 -1.3 -4.358 -1.81 c -0.727 -0.251 -1.215 -0.973 -1.215 -1.795 V 4.214 C 56.49 1.891 54.599 0 52.276 0 H 37.724 C 35.4 0 33.51 1.891 33.51 4.215 v 2.166 c 0 0.822 -0.488 1.544 -1.215 1.795 c -1.478 0.51 -2.944 1.119 -4.359 1.81 c -0.682 0.335 -1.525 0.174 -2.098 -0.398 l -1.553 -1.553 c -0.796 -0.796 -1.854 -1.235 -2.98 -1.235 c -1.126 0 -2.184 0.438 -2.98 1.235 L 8.036 18.325 c -0.796 0.796 -1.235 1.854 -1.235 2.98 c 0 1.126 0.439 2.185 1.234 2.98 l 1.554 1.554 c 0.572 0.572 0.732 1.414 0.398 2.098 c -0.691 1.413 -1.3 2.88 -1.81 4.358 c -0.251 0.727 -0.972 1.215 -1.795 1.215 H 4.214 C 1.891 33.51 0 35.4 0 37.724 v 14.552 c 0 2.324 1.891 4.215 4.214 4.215 h 2.167 c 0.822 0 1.544 0.488 1.795 1.215 c 0.51 1.479 1.12 2.945 1.81 4.358 c 0.334 0.683 0.174 1.526 -0.398 2.099 l -1.553 1.552 c -0.796 0.796 -1.235 1.854 -1.235 2.981 s 0.439 2.185 1.235 2.98 l 10.29 10.291 c 1.642 1.641 4.316 1.642 5.96 -0.001 l 1.553 -1.553 c 0.574 -0.572 1.416 -0.733 2.098 -0.398 c 1.411 0.69 2.877 1.299 4.358 1.811 c 0.727 0.251 1.215 0.972 1.215 1.795 v 2.166 C 33.51 88.109 35.4 90 37.724 90 h 14.551 c 2.324 0 4.215 -1.891 4.215 -4.215 v -2.166 c 0 -0.823 0.488 -1.544 1.215 -1.795 c 1.482 -0.512 2.949 -1.121 4.359 -1.811 c 0.684 -0.337 1.526 -0.174 2.098 0.398 l 1.553 1.553 c 1.642 1.642 4.316 1.643 5.96 0 l 10.288 -10.289 c 0.797 -0.796 1.236 -1.854 1.236 -2.981 s -0.439 -2.185 -1.234 -2.98 l -1.554 -1.555 c -0.572 -0.571 -0.732 -1.414 -0.398 -2.096 c 0.69 -1.41 1.299 -2.877 1.811 -4.359 c 0.251 -0.726 0.973 -1.215 1.795 -1.215 h 2.166 c 2.324 0 4.215 -1.891 4.215 -4.215 V 37.724 C 90 35.4 88.109 33.51 85.785 33.51 z M 76.368 47.547 c -1.201 15.229 -13.591 27.62 -28.82 28.821 c -0.837 0.066 -1.675 0.099 -2.508 0.099 c -8.351 0 -16.362 -3.285 -22.292 -9.216 c -6.522 -6.522 -9.844 -15.561 -9.116 -24.799 c 1.201 -15.229 13.591 -27.619 28.821 -28.82 c 9.242 -0.727 18.277 2.595 24.799 9.116 C 73.773 29.27 77.096 38.309 76.368 47.547 z" style="stroke: none; stroke-width: 1; stroke-dasharray: none; stroke-linecap: butt; stroke-linejoin: miter; stroke-miterlimit: 10; fill: rgb(0,0,0); fill-rule: nonzero; opacity: 1;" transform=" matrix(1 0 0 1 0 0) " stroke-linecap="round" />
</g>
</svg>